<svg width="20" height="20" viewBox="0 0 20 20" fill="none" xmlns="http://www.w3.org/2000/svg">
<g clip-path="url(#clip0_21_263)">
<path d="M9.375 -0.00020883L10.625 -0.000208721C10.6684 0.0103389 10.7113 0.0243999 10.7555 0.0310413C11.2121 0.0978386 11.6727 0.141589 12.1227 0.232213C16.0012 1.008 19.2125 4.34159 19.8438 8.23768C19.9051 8.61542 19.9484 8.99589 20 9.37479L20 10.6248C19.9887 10.6814 19.975 10.7377 19.9664 10.7943C19.9 11.2455 19.8578 11.699 19.7656 12.1439C18.9582 16.0435 15.6641 19.201 11.743 19.8463C11.3719 19.9072 10.9977 19.9494 10.625 20.0002L9.375 20.0002C9.325 19.9892 9.275 19.976 9.22461 19.9678C8.71133 19.8896 8.19063 19.8408 7.68555 19.7256C3.83398 18.8443 0.803126 15.6205 0.151562 11.7236C0.0906265 11.3592 0.05 10.9912 8.19623e-07 10.6248L9.28901e-07 9.37479C0.0109377 9.3244 0.0253935 9.27479 0.032815 9.22362C0.100783 8.76112 0.143359 8.29315 0.238282 7.83612C1.04219 3.95721 4.35508 0.7869 8.25781 0.154088C8.62891 0.0939321 9.00235 0.0509634 9.375 -0.00020883ZM1.5625 10.0045C1.5668 14.6529 5.35156 18.4365 10 18.4373C14.6484 18.4381 18.4328 14.6541 18.4375 10.0053C18.4422 5.35643 14.6414 1.55448 9.99063 1.56268C5.33985 1.57089 1.5586 5.35878 1.5625 10.0045Z" fill="black"/>
<path d="M20 9.375C19.9484 8.99609 19.9051 8.61563 19.8438 8.23789C19.2125 4.3418 16.0012 1.0082 12.1242 0.232421C11.6727 0.141796 11.2121 0.0980455 10.757 0.0312492C10.7129 0.0246078 10.6699 0.0105459 10.6266 -8.19452e-07L20 0L20 9.375Z" fill="white"/>
<path d="M9.375 0C9.00234 0.0511722 8.62891 0.0941409 8.25781 0.154297C4.35508 0.78711 1.04219 3.95742 0.23828 7.83633C0.143358 8.29336 0.100782 8.76133 0.032814 9.22383C0.0253916 9.275 0.0109377 9.32461 0 9.375L8.19589e-07 -8.19589e-07L9.375 0Z" fill="white"/>
<path d="M10.625 19.9998C10.9977 19.949 11.3719 19.9068 11.743 19.8459C15.6641 19.2006 18.9582 16.0432 19.7656 12.1439C19.8578 11.6994 19.9 11.2455 19.9664 10.7947C19.975 10.7381 19.9887 10.6818 20 10.6252L20 20.0002L10.625 19.9998Z" fill="white"/>
<path d="M8.19589e-07 10.625C0.050001 10.9914 0.0906256 11.3594 0.151563 11.7238C0.803126 15.6207 3.83398 18.8445 7.68555 19.7254C8.19062 19.8406 8.71133 19.8879 9.22461 19.9676C9.275 19.9758 9.325 19.9891 9.375 20L0 20L8.19589e-07 10.625Z" fill="white"/>
<path d="M1.5625 10.0047C1.55859 5.35898 5.34062 1.5707 9.99062 1.56289C14.6406 1.55508 18.4418 5.35352 18.4375 10.0055C18.4332 14.6574 14.6465 18.4379 10 18.4375C5.35351 18.4371 1.56679 14.6543 1.5625 10.0047ZM10.0156 5.98633L4.67617 11.3238L5.77617 12.432L10.0473 8.15976L14.284 12.3992L15.3566 11.3273L10.0156 5.98633Z" fill="white"/>
<path d="M10.0157 5.98633L15.3567 11.3274L14.284 12.3992L10.0473 8.15977L5.77622 12.432L4.67622 11.3238L10.0157 5.98633Z" fill="black"/>
</g>
<defs>
<clipPath id="clip0_21_263">
<rect width="20" height="20" fill="white" transform="translate(20 20) rotate(-180)"/>
</clipPath>
</defs>
</svg>
