<svg width="25" height="25" viewBox="0 0 25 25" fill="none" xmlns="http://www.w3.org/2000/svg">
<g clip-path="url(#clip0_21_278)">
<path d="M25 25H0V0H25V25ZM12.4616 6.2832H20.3776C21.1328 6.2832 21.8887 6.29232 22.6439 6.2832C22.8761 6.28008 23.1046 6.22484 23.3127 6.12156C23.5207 6.01828 23.7028 5.8696 23.8457 5.6865C23.9885 5.5034 24.0884 5.29055 24.138 5.06366C24.1876 4.83678 24.1856 4.60166 24.1322 4.37565C23.9635 3.63672 23.3398 3.16732 22.5189 3.16732H2.44466C2.37956 3.16732 2.31445 3.16732 2.24935 3.16732C1.86058 3.19064 1.49454 3.35832 1.22296 3.63748C0.951387 3.91665 0.793858 4.28717 0.78125 4.67643C0.759766 5.58268 1.45898 6.2819 2.40039 6.28255C5.75369 6.28472 9.10742 6.28494 12.4616 6.2832ZM12.4889 10.9622H3.98568C3.42513 10.9622 2.86458 10.9538 2.30404 10.9655C2.07417 10.9697 1.84812 11.025 1.64225 11.1274C1.43638 11.2297 1.25584 11.3766 1.11371 11.5573C0.971573 11.738 0.871396 11.948 0.820427 12.1722C0.769459 12.3964 0.768975 12.6291 0.81901 12.8535C0.984375 13.6061 1.60807 14.0794 2.44206 14.0794H22.5189C22.584 14.0794 22.6491 14.0794 22.7142 14.0762C23.1033 14.0516 23.4693 13.8825 23.7401 13.6019C24.0109 13.3213 24.167 12.9497 24.1777 12.5599C24.1966 11.6536 23.4974 10.9609 22.5501 10.9603C19.1968 10.9607 15.8431 10.9614 12.4889 10.9622ZM12.4824 21.8822H19.8392C20.7734 21.8822 21.7077 21.8919 22.6387 21.8789C22.8753 21.8762 23.1082 21.8196 23.3195 21.7132C23.5309 21.6069 23.7152 21.4537 23.8584 21.2653C24.0016 21.0769 24.0999 20.8583 24.1457 20.6262C24.1916 20.394 24.1838 20.1545 24.123 19.9258C23.9447 19.2246 23.3223 18.7617 22.5456 18.7617H2.39974C2.3431 18.7617 2.28581 18.7617 2.22917 18.7656C1.84511 18.7943 1.48511 18.9636 1.218 19.2411C0.950881 19.5185 0.79539 19.8847 0.78125 20.2695C0.757812 21.1771 1.45703 21.8789 2.39648 21.8796C5.75846 21.8813 9.12044 21.8822 12.4824 21.8822Z" fill="white"/>
<path d="M12.4617 6.28321C9.1075 6.28321 5.75333 6.28321 2.39916 6.28321C1.45776 6.28321 0.758539 5.58334 0.780023 4.67709C0.792511 4.2874 0.950242 3.91645 1.22224 3.6371C1.49424 3.35776 1.86085 3.1902 2.25007 3.16733C2.31518 3.16733 2.38028 3.16733 2.44539 3.16733H22.5216C23.3425 3.16733 23.9662 3.63673 24.1348 4.37566C24.1883 4.60167 24.1903 4.83679 24.1407 5.06367C24.0911 5.29056 23.9912 5.50341 23.8484 5.68651C23.7055 5.86961 23.5233 6.01829 23.3153 6.12157C23.1073 6.22485 22.8788 6.28009 22.6466 6.28321C21.8914 6.29558 21.1355 6.28321 20.3803 6.28321H12.4617Z" fill="black"/>
<path d="M12.4888 10.9622C15.843 10.9622 19.1972 10.9622 22.5513 10.9622C23.4966 10.9622 24.1959 11.6556 24.1789 12.5619C24.1682 12.9516 24.0121 13.3233 23.7413 13.6039C23.4705 13.8844 23.1045 14.0536 22.7154 14.0781C22.6503 14.082 22.5852 14.0814 22.5201 14.0814H2.44196C1.60797 14.0814 0.984274 13.6081 0.81891 12.8555C0.768874 12.6311 0.769358 12.3984 0.820326 12.1742C0.871295 11.95 0.971472 11.7399 1.11361 11.5592C1.25574 11.3785 1.43628 11.2317 1.64215 11.1293C1.84802 11.027 2.07407 10.9717 2.30394 10.9675C2.86448 10.9557 3.42503 10.9642 3.98558 10.9642L12.4888 10.9622Z" fill="black"/>
<path d="M12.4823 21.8822C9.1195 21.8822 5.75708 21.8822 2.3951 21.8822C1.45565 21.8822 0.756432 21.1797 0.779869 20.2721C0.793884 19.8869 0.949488 19.5205 1.21689 19.2428C1.48429 18.9652 1.84469 18.796 2.22909 18.7676C2.28573 18.7637 2.34302 18.7637 2.39966 18.7637H22.5494C23.3261 18.7637 23.9485 19.2266 24.1269 19.9277C24.1877 20.1564 24.1954 20.396 24.1496 20.6281C24.1037 20.8602 24.0054 21.0789 23.8622 21.2672C23.7191 21.4556 23.5348 21.6088 23.3234 21.7152C23.112 21.8215 22.8791 21.8782 22.6425 21.8809C21.7089 21.8939 20.7747 21.8841 19.843 21.8841L12.4823 21.8822Z" fill="black"/>
</g>
<defs>
<clipPath id="clip0_21_278">
<rect width="25" height="25" fill="white"/>
</clipPath>
</defs>
</svg>
