<svg width="80" height="80" viewBox="0 0 80 80" fill="none" xmlns="http://www.w3.org/2000/svg">
<g clip-path="url(#clip0_28_1262)">
<path d="M39.9304 3.89339e-05C45.1993 -0.00731123 50.4179 1.02611 55.2865 3.04099C60.1551 5.05586 64.5778 8.01251 68.3008 11.7412C72.0239 15.4699 74.9739 19.8973 76.9815 24.7691C78.9891 29.641 80.0149 34.8614 79.9998 40.1308C79.9553 62.2679 61.9602 80.0472 39.6521 79.9999C17.8448 79.9498 -0.0194623 61.9173 1.59134e-05 39.9638C0.0194941 17.9491 17.9422 -0.00274386 39.9304 3.89339e-05ZM6.66713 39.9694C6.66713 58.3191 21.5485 73.2906 39.8413 73.3323C44.2335 73.3514 48.5861 72.5026 52.6493 70.8347C56.7126 69.1668 60.4063 66.7126 63.5185 63.6132C66.6307 60.5137 69.1001 56.8299 70.7848 52.7733C72.4694 48.7168 73.3363 44.3674 73.3355 39.9749C73.3578 21.678 58.3929 6.67597 40.1085 6.66762C21.6292 6.65927 6.6727 21.5667 6.66713 39.9694Z" fill="#0085FF"/>
<path d="M39.981 21.7979C41.5143 22.0063 43.106 22.0313 44.5643 22.4771C47.7102 23.4375 49.8268 26.4229 49.8852 29.7104C49.9123 31.2396 49.9706 32.7938 49.7497 34.2938C49.3185 37.2104 47.606 39.2438 44.8914 40.4C42.881 41.2542 42.4164 41.9208 42.4143 44.1188C42.4143 45.0813 42.4456 46.0438 42.4018 47.0042C42.3703 47.6212 42.1079 48.2038 41.6668 48.6364C41.2257 49.069 40.6381 49.32 40.0206 49.3396C38.7581 49.3938 37.5206 48.4646 37.4706 47.2063C37.3997 45.4979 37.3435 43.7583 37.5852 42.0771C38.0018 39.1604 39.7331 37.1292 42.4622 35.9958C44.3872 35.1979 44.9102 34.4458 44.9102 32.3292C44.9102 31.5229 44.9289 30.7167 44.9102 29.9125C44.9015 29.136 44.5889 28.3937 44.0393 27.845C43.4898 27.2962 42.7471 26.9847 41.9706 26.9771C40.5935 26.9479 39.2164 26.9458 37.8393 26.9771C37.0766 26.993 36.3494 27.3025 35.8092 27.8411C35.269 28.3798 34.9574 29.1061 34.9393 29.8688C34.9143 30.5688 34.9497 31.2708 34.9268 31.9729C34.9214 32.6302 34.6573 33.2589 34.1917 33.7229C33.7262 34.1868 33.0966 34.4488 32.4393 34.4521C32.1131 34.4554 31.7895 34.3937 31.4873 34.2706C31.1852 34.1475 30.9106 33.9654 30.6796 33.735C30.4486 33.5046 30.2659 33.2305 30.142 32.9286C30.0181 32.6268 29.9556 32.3033 29.9581 31.9771C29.9789 30.6083 29.9581 29.2 30.2622 27.8813C31.0622 24.4583 34.1768 22.0708 37.6977 21.9854C38.4497 21.9667 39.2039 21.9854 39.9581 21.9854L39.981 21.7979Z" fill="#0085FF"/>
<path d="M42.415 53.1937C42.4124 53.6896 42.2625 54.1735 41.9842 54.5839C41.7059 54.9943 41.3119 55.3127 40.8522 55.4985C40.3925 55.6844 39.8879 55.7294 39.4026 55.6277C38.9172 55.5261 38.4731 55.2824 38.1266 54.9277C37.7802 54.573 37.547 54.1232 37.4568 53.6357C37.3666 53.1481 37.4234 52.6447 37.62 52.1895C37.8166 51.7343 38.1442 51.3478 38.561 51.0793C38.9778 50.8107 39.4651 50.6722 39.9608 50.6812C40.6181 50.6933 41.2441 50.9637 41.7034 51.4339C42.1628 51.9042 42.4184 52.5364 42.415 53.1937Z" fill="#0085FF"/>
</g>
<defs>
<clipPath id="clip0_28_1262">
<rect width="80" height="80" fill="white"/>
</clipPath>
</defs>
</svg>
