<svg width="80" height="80" viewBox="0 0 80 80" fill="none" xmlns="http://www.w3.org/2000/svg">
<g clip-path="url(#clip0_28_905)">
<path d="M0 42.5708V37.5708C0.0458333 37.3458 0.0999999 37.1208 0.133333 36.8938C0.4 35.0979 0.568749 33.2812 0.941666 31.5063C4.6375 13.8333 20.6854 0.539585 38.7292 0.150001C46.4771 -0.0166652 53.7729 1.68958 60.3583 5.79167C72.7396 13.5 79.3167 24.7208 79.825 39.3187C80.1104 47.5708 77.8437 55.2125 73.2271 62.0667C66.8792 71.4896 58.0812 77.275 46.8896 79.3729C45.4146 79.6479 43.9146 79.7896 42.4271 79.9979H37.4271C37.2308 79.9418 37.0311 79.8986 36.8292 79.8688C28.875 79.2438 21.7146 76.5104 15.4438 71.5812C7.375 65.2396 2.39375 56.9979 0.589584 46.875C0.341667 45.4521 0.195833 44.0063 0 42.5708ZM5.31667 39.9979C5.23958 59.0458 20.7542 74.6167 39.875 74.6833C58.9021 74.75 74.4208 59.3083 74.5458 40.1875C74.6687 21.1563 59.1771 5.575 40.025 5.46667C20.9896 5.35834 5.39583 20.8729 5.31667 39.9979Z" fill="#EC1F26"/>
<path d="M40.0482 36.4208C40.2169 36.1512 40.4042 35.8936 40.6086 35.65C44.1267 32.1125 47.651 28.5785 51.1816 25.0479C52.2878 23.9437 53.7274 23.7979 54.8378 24.6312C56.1941 25.6604 56.2857 27.4896 55.0066 28.7833C52.8482 30.9625 50.6649 33.1167 48.4941 35.2854C46.917 36.8625 45.3461 38.4458 43.7316 40.0771C43.9399 40.3063 44.1274 40.5146 44.3232 40.7125C47.8378 44.2187 51.367 47.7104 54.8503 51.25C55.3291 51.7485 55.6714 52.362 55.844 53.0312C56.1065 54.125 55.517 55.1687 54.5503 55.7167C54.0808 55.9752 53.5446 56.087 53.0109 56.0376C52.4772 55.9882 51.9706 55.7799 51.5566 55.4396C51.3582 55.2714 51.169 55.0927 50.9899 54.9042L40.5232 44.4167C40.3441 44.2354 40.1545 44.0667 39.9357 43.8625C39.7149 44.0708 39.519 44.2354 39.3461 44.4146C35.819 47.9458 32.3045 51.4979 28.7545 54.9979C28.3194 55.4362 27.7847 55.7629 27.1961 55.95C26.0316 56.2833 24.8691 55.7042 24.2795 54.6646C23.6899 53.625 23.8753 52.3396 24.8232 51.3896C28.2954 47.9174 31.7732 44.4451 35.2566 40.9729C35.5316 40.6979 35.8253 40.4417 36.1795 40.1146C35.942 39.8625 35.7628 39.6563 35.5691 39.4646C32.0191 35.9188 28.4677 32.3771 24.9149 28.8396C23.8732 27.7979 23.6649 26.4771 24.3316 25.3771C25.2607 23.8542 27.267 23.6521 28.6128 24.9833C30.8482 27.1958 33.0586 29.4333 35.2795 31.65C36.8128 33.1896 38.3336 34.7125 40.0482 36.4208Z" fill="#EC1F26"/>
</g>
<defs>
<clipPath id="clip0_28_905">
<rect width="80" height="80" fill="white"/>
</clipPath>
</defs>
</svg>
