<svg width="35" height="35" viewBox="0 0 35 35" fill="none" xmlns="http://www.w3.org/2000/svg">
<g clip-path="url(#clip0_30_1935)">
<path d="M23.4939 25.3385C20.219 27.8779 16.5531 28.7684 12.5154 27.8806C9.41641 27.1997 6.9181 25.5309 5.04779 22.9697C1.17956 17.6741 1.92422 10.4289 6.77409 5.94453C11.3797 1.68437 18.7479 1.55221 23.5641 5.57083C28.7339 9.88385 29.8677 17.881 25.2958 23.5393C25.387 23.6305 25.4781 23.7298 25.5693 23.8237C27.6766 25.931 29.7884 28.0328 31.8829 30.152C32.1026 30.3765 32.2597 30.6546 32.3387 30.9586C32.4663 31.5055 32.1764 32.0186 31.7006 32.2684C31.4629 32.3961 31.19 32.4428 30.9234 32.4014C30.6567 32.3599 30.4109 32.2326 30.2232 32.0387C29.6052 31.4344 28.9991 30.8182 28.3875 30.2076L23.7299 25.5536C23.6534 25.4826 23.5768 25.416 23.4939 25.3385ZM15.3819 5.13607C9.74453 5.11966 5.12435 9.72435 5.09427 15.3891C5.06419 21.0538 9.68346 25.6949 15.35 25.7132C20.9965 25.7296 25.634 21.1258 25.6595 15.4775C25.6859 9.79271 21.0758 5.15338 15.3855 5.13607H15.3819Z" fill="black"/>
</g>
<defs>
<clipPath id="clip0_30_1935">
<rect width="35" height="35" fill="white"/>
</clipPath>
</defs>
</svg>
