<svg width="80" height="80" viewBox="0 0 80 80" fill="none" xmlns="http://www.w3.org/2000/svg">
<g clip-path="url(#clip0_28_584)">
<path d="M77.0311 40.0458C77.0457 58.2417 63.6373 73.9458 45.7394 76.6958C26.4582 79.6583 8.40608 67.5437 3.84358 48.5854C-0.760591 29.4583 10.6582 9.83542 29.6457 4.48125C41.0019 1.275 51.6019 3.12917 61.3477 9.8C62.4498 10.5542 62.9436 11.5854 62.6727 12.8875C62.4269 14.0625 61.6311 14.7833 60.4644 15.0458C59.5352 15.2542 58.7373 14.9229 57.9852 14.3917C54.6435 12.0353 50.8725 10.3565 46.8852 9.45C29.7686 5.51042 12.6477 16.5625 9.17691 33.8C5.70608 51.0375 17.0623 67.8271 34.3269 70.9167C51.3582 73.9646 67.6477 62.725 70.7852 45.7479C71.5846 41.4404 71.4711 37.013 70.4519 32.7521C70.2956 32.2055 70.2377 31.6355 70.2811 31.0687C70.3644 30.4305 70.6686 29.8416 71.1409 29.4044C71.6132 28.9671 72.2238 28.709 72.8665 28.675C74.2998 28.5917 75.454 29.3896 75.8352 30.7979C76.618 33.8186 77.0197 36.9254 77.0311 40.0458Z" fill="#24FF00"/>
<path d="M37.0938 47.5667C37.5 47.1104 37.775 46.7646 38.0854 46.4542C47.434 37.0944 56.782 27.7347 66.1292 18.375C66.7979 17.7042 67.525 17.2229 68.5146 17.2563C69.6584 17.2958 70.5084 17.8208 71.0146 18.8354C71.5209 19.85 71.4167 20.85 70.7709 21.7813C70.5995 22.01 70.4078 22.2227 70.1979 22.4167L39.4313 53.175C37.8292 54.775 36.3167 54.7625 34.7021 53.15C30.1091 48.5556 25.5146 43.9625 20.9188 39.3708C20.0542 38.5063 19.7146 37.4958 20.1104 36.3167C20.4938 35.175 21.325 34.5229 22.5146 34.3771C23.5563 34.25 24.3604 34.7 25.0792 35.4188C28.8528 39.216 32.6334 43.0063 36.4209 46.7896C36.6209 46.9958 36.7959 47.2229 37.0938 47.5667Z" fill="#24FF00"/>
</g>
<defs>
<clipPath id="clip0_28_584">
<rect width="80" height="80" fill="white"/>
</clipPath>
</defs>
</svg>
