<svg width="25" height="25" viewBox="0 0 25 25" fill="none" xmlns="http://www.w3.org/2000/svg">
<g clip-path="url(#clip0_21_272)">
<path d="M0 1.02345C0.03125 0.950533 0.0651042 0.876966 0.093099 0.804049C0.163074 0.632404 0.271479 0.479092 0.40998 0.3559C0.54848 0.232708 0.713386 0.142918 0.89202 0.0934339C1.07065 0.0439497 1.25826 0.0360896 1.4404 0.0704573C1.62255 0.104825 1.79439 0.180505 1.94271 0.291679C2.04409 0.37177 2.1398 0.458784 2.22917 0.552096C5.57118 3.89411 8.91319 7.23612 12.2552 10.5781C12.3203 10.6432 12.3783 10.7266 12.4505 10.8138C12.5547 10.7149 12.625 10.6504 12.6921 10.5827C16.0575 7.21898 19.4212 3.85526 22.7832 0.491549C23.1367 0.137383 23.5384 -0.0351435 24.0378 0.0937627C24.2312 0.143044 24.4095 0.239431 24.5567 0.374333C24.7039 0.509234 24.8155 0.67846 24.8814 0.866925C24.9474 1.05539 24.9656 1.25724 24.9347 1.45449C24.9037 1.65174 24.8243 1.83825 24.7038 1.99741C24.6238 2.09892 24.5368 2.19465 24.4434 2.28387C21.1066 5.61937 17.77 8.95466 14.4336 12.2897C14.3652 12.3587 14.2865 12.4199 14.1882 12.5007C14.2747 12.5925 14.3379 12.6615 14.4036 12.7272C17.7626 16.0862 21.1211 19.4445 24.4792 22.8021C24.8815 23.2044 25.0651 23.6524 24.8652 24.211C24.7142 24.6374 24.3743 24.8535 23.974 25H23.4896C23.123 24.8822 22.8548 24.6315 22.5892 24.3652C19.2919 21.0606 15.9907 17.7589 12.6855 14.4603C12.6204 14.3952 12.5488 14.3301 12.444 14.2292C12.3836 14.3155 12.3184 14.3983 12.2487 14.4772C8.95399 17.7758 5.65885 21.0727 2.36328 24.3679C2.09766 24.6341 1.82943 24.8848 1.46289 25.002H0.976562C0.48763 24.8412 0.156901 24.5221 0 24.0254V23.5378C0.119141 23.1725 0.36849 22.9037 0.634766 22.6374C3.93945 19.3388 7.24197 16.0376 10.5423 12.7337C10.6074 12.6686 10.6725 12.5977 10.7741 12.4915C10.6817 12.4255 10.593 12.3545 10.5085 12.2787C7.20985 8.98352 3.91276 5.68838 0.617188 2.39324C0.356771 2.13282 0.114583 1.87241 0 1.51043V1.02345Z" fill="black"/>
</g>
<defs>
<clipPath id="clip0_21_272">
<rect width="25" height="25" fill="white"/>
</clipPath>
</defs>
</svg>
