<svg width="100" height="100" viewBox="0 0 100 100" fill="none" xmlns="http://www.w3.org/2000/svg">
<path fill-rule="evenodd" clip-rule="evenodd" d="M11.4504 94.6949C18.7522 100 29.1682 100 50 100C70.8318 100 81.2478 100 88.5496 94.6949C90.9078 92.9816 92.9816 90.9078 94.6949 88.5496C100 81.2478 100 70.8319 100 50C100 29.1682 100 18.7523 94.6949 11.4504C92.9816 9.09225 90.9078 7.01842 88.5496 5.3051C81.2478 2.3545e-05 70.8318 2.10156e-05 50 1.59567e-05C29.1682 1.08979e-05 18.7522 8.36851e-06 11.4504 5.30508C9.09222 7.0184 7.01841 9.09223 5.30508 11.4504C6.39261e-07 18.7522 5.57308e-07 29.1682 3.93402e-07 50C2.29497e-07 70.8318 1.47543e-07 81.2478 5.30508 88.5496C7.01841 90.9078 9.09222 92.9816 11.4504 94.6949ZM41.822 19.2628C40.1876 17.6429 37.5494 17.6547 35.9295 19.2891C34.3096 20.9236 34.3214 23.5617 35.9558 25.1816L45.7501 34.8889C49.725 38.8285 52.4517 41.5399 54.2967 43.8373C56.0889 46.0689 56.7038 47.5023 56.8674 48.7861C56.9701 49.5922 56.9701 50.4078 56.8674 51.2139C56.7038 52.4977 56.0889 53.9311 54.2967 56.1628C52.4517 58.4601 49.725 61.1715 45.7501 65.1111L35.9558 74.8184C34.3214 76.4383 34.3096 79.0765 35.9295 80.7109C37.5494 82.3453 40.1876 82.3571 41.822 80.7372L51.7927 70.855C55.5481 67.1332 58.6175 64.0912 60.7941 61.3808C63.0576 58.5623 64.6961 55.7015 65.1338 52.2676C65.3258 50.7619 65.3258 49.2382 65.1338 47.7324C64.6961 44.2985 63.0576 41.4377 60.7941 38.6192C58.6174 35.9088 55.5482 32.8669 51.7928 29.145L41.822 19.2628Z" fill="#2D264B"/>
</svg>
