<svg width="35" height="35" viewBox="0 0 35 35" fill="none" xmlns="http://www.w3.org/2000/svg">
<g clip-path="url(#clip0_30_1939)">
<path d="M4.90736 30.0818H30.0189V29.6853C30.0189 25.6597 30.0189 21.6341 30.0189 17.6085C30.0189 16.6897 30.6378 15.9806 31.4946 15.8986C31.7217 15.8759 31.9511 15.9011 32.1679 15.9725C32.3847 16.044 32.5841 16.1602 32.7532 16.3135C32.9224 16.4668 33.0575 16.6539 33.1498 16.8627C33.2421 17.0714 33.2896 17.2972 33.2893 17.5255C33.302 18.7533 33.2893 19.9819 33.2893 21.2096C33.2893 24.2806 33.2893 27.351 33.2893 30.4208C33.2893 32.2219 32.1499 33.363 30.3525 33.363C21.7569 33.363 13.1609 33.363 4.56465 33.363C2.76725 33.363 1.62793 32.2219 1.62793 30.4217C1.62793 26.1464 1.62793 21.8704 1.62793 17.5939C1.62793 16.4227 2.6752 15.6297 3.7571 15.9678C4.45527 16.1857 4.89915 16.8146 4.90006 17.6085C4.90006 20.0311 4.90006 22.4535 4.90006 24.8755V30.0827L4.90736 30.0818Z" fill="black"/>
<path d="M15.8255 21.2005V20.7448C15.8255 14.9783 15.8255 9.21181 15.8255 3.44531C15.8255 2.42995 16.5246 1.68985 17.4661 1.69349C17.88 1.69645 18.2774 1.8557 18.5788 2.13933C18.8802 2.42296 19.0632 2.81001 19.0913 3.22292C19.1004 3.35873 19.0958 3.49635 19.0958 3.63216V21.1941C19.2207 21.0811 19.3036 21.0119 19.3793 20.9362C20.4092 19.9072 21.4292 18.8681 22.471 17.8518C23.3742 16.9704 24.8408 17.3296 25.1917 18.5126C25.3894 19.1707 25.209 19.7422 24.7232 20.2262C23.644 21.3017 22.5664 22.3793 21.4902 23.4591C20.5788 24.3706 19.67 25.279 18.7641 26.1844C17.9237 27.0229 17.0004 27.0284 16.1682 26.198C14.1733 24.2044 12.1797 22.2092 10.1872 20.2125C9.25937 19.2801 9.58385 17.8099 10.7952 17.4398C11.4523 17.2393 12.0238 17.418 12.5078 17.9038C13.511 18.9118 14.5164 19.9172 15.5238 20.9198C15.6068 20.9982 15.6888 21.072 15.8255 21.2005Z" fill="black"/>
</g>
<defs>
<clipPath id="clip0_30_1939">
<rect width="35" height="35" fill="white"/>
</clipPath>
</defs>
</svg>
