<svg width="35" height="35" viewBox="0 0 35 35" fill="none" xmlns="http://www.w3.org/2000/svg">
<g clip-path="url(#clip0_30_1943)">
<path d="M7.45363 24.1974L15.2329 17.531L7.44999 10.8564L7.33605 10.8892C7.33605 11.3258 7.34335 11.7624 7.33605 12.199C7.32876 12.6355 7.11184 12.9108 6.75637 12.9646C6.3535 13.0266 5.97707 12.7741 5.95428 12.3685C5.91289 11.8698 5.91991 11.3683 5.97525 10.871C6.18215 9.41263 7.32238 8.45013 8.81079 8.4474C13.1104 8.44193 17.4095 8.44193 21.7079 8.4474C24.5407 8.4474 27.3729 8.4474 30.2045 8.4474C32.0275 8.4474 33.1914 9.60859 33.1923 11.4288C33.196 15.5 33.196 19.5711 33.1923 23.6423C33.1923 25.4406 32.0193 26.6091 30.2237 26.6091C23.1271 26.6091 16.0302 26.6091 8.93293 26.6091C7.1173 26.6091 5.94152 25.4342 5.93879 23.6259C5.93879 23.3762 5.93879 23.1255 5.93879 22.8758C5.94517 22.3854 6.21223 22.0819 6.63514 22.081C7.05806 22.0801 7.32603 22.3745 7.33605 22.8712C7.34426 23.2987 7.33605 23.7271 7.33605 24.1555L7.45363 24.1974ZM8.4617 9.86654C8.60025 9.99505 8.67225 10.0652 8.7479 10.1309C12.1519 13.0451 15.5553 15.9569 18.9581 18.8663C19.4193 19.2609 19.7191 19.2555 20.1876 18.8535C23.5904 15.9417 26.9932 13.0287 30.3959 10.1145C30.4707 10.0506 30.54 9.98138 30.663 9.86654H8.4617ZM8.45533 25.179H30.6812L22.8181 18.4342C22.1573 19.0076 21.5302 19.5681 20.8849 20.1068C20.5481 20.4017 20.1224 20.5755 19.6754 20.6005C19.2284 20.6254 18.786 20.5001 18.4185 20.2444C18.3172 20.1708 18.2199 20.092 18.1268 20.0083L16.3148 18.4406L8.45533 25.179ZM31.7586 10.7971L23.9009 17.531L31.7586 24.263V10.7971Z" fill="black"/>
<path d="M5.56684 19.9819C4.55512 19.9819 3.54431 19.9874 2.53259 19.9819C1.99665 19.9819 1.67491 19.6082 1.76788 19.1315C1.83442 18.7897 2.11788 18.5801 2.55811 18.5764C3.43311 18.5691 4.30811 18.5764 5.18402 18.5764C6.3197 18.5764 7.45629 18.5764 8.59288 18.5764C9.06593 18.5764 9.36671 18.8052 9.41319 19.1753C9.47699 19.6365 9.15434 19.9801 8.63116 19.9828C7.61215 19.9865 6.58949 19.9819 5.56684 19.9819Z" fill="black"/>
<path d="M6.61999 15.0792C7.27897 15.0792 7.93887 15.0792 8.59785 15.0792C9.11191 15.0792 9.42454 15.3526 9.42363 15.7828C9.42272 16.213 9.11374 16.4846 8.59603 16.4874C7.289 16.4928 5.98257 16.4928 4.67676 16.4874C4.16634 16.4874 3.84277 16.2021 3.84277 15.7819C3.84277 15.3617 4.17181 15.0837 4.67767 15.0801C5.32389 15.0764 5.97194 15.0792 6.61999 15.0792Z" fill="black"/>
</g>
<defs>
<clipPath id="clip0_30_1943">
<rect width="35" height="35" fill="white"/>
</clipPath>
</defs>
</svg>
