<svg width="100" height="100" viewBox="0 0 100 100" fill="none" xmlns="http://www.w3.org/2000/svg">
<g clip-path="url(#clip0_9_51)">
<path d="M8.73804e-07 46.9792C0.260418 45.1198 0.442709 43.2474 0.781251 41.401C2.86458 29.901 8.33333 20.2865 17.0859 12.5703C24.5651 5.97396 33.2917 1.96354 43.1719 0.661457C55.8932 -1.01823 67.6667 1.72135 78.2109 9.05989C89.3385 16.8047 96.3776 27.401 98.8854 40.7552C101.602 55.237 98.4687 68.5182 89.5677 80.2708C81.9115 90.3776 71.7214 96.6276 59.263 99.1016C57.5182 99.4479 55.7318 99.5833 53.9635 99.8229C53.6484 99.8672 53.3359 99.9401 53.0208 100H46.7708C45.5521 99.849 44.3333 99.7188 43.125 99.5443C33.1224 98.112 24.2969 94.0938 16.7682 87.3542C8.1875 79.6719 2.82292 70.1432 0.770834 58.7917C0.434896 56.9453 0.250001 55.0755 -0.010416 53.2161L8.73804e-07 46.9792ZM4.6875 50.0052C4.64583 74.9089 24.8724 95.237 49.7708 95.3177C74.6693 95.3984 95.0833 75.1094 95.1328 50.1823C95.1823 25.2552 74.9323 4.9349 50.0469 4.86979C25.0964 4.8099 4.71875 25.0833 4.6875 50.0052Z" fill="#7A7A7A"/>
<path d="M49.5547 79.2135C40.5879 79.2325 31.6491 78.2136 22.9167 76.1771C21.3542 75.8125 20.6849 74.9479 20.8125 73.2969C21.5938 63.1667 26.3203 55.4245 34.8984 50.0208C36.0599 49.2891 36.862 49.4115 38.1745 50.4245C41.3861 52.9293 45.315 54.3407 49.3864 54.4522C53.4579 54.5637 57.4581 53.3695 60.8021 51.0443C60.8828 50.9896 60.9635 50.9349 61.0417 50.8776C63.4557 49.1537 63.7266 49.1016 66.0964 50.7552C73.9271 56.2083 78.2865 63.6797 78.9974 73.2266C79.1302 74.9922 78.5 75.7969 76.7734 76.2005C67.8504 78.2708 58.7145 79.2821 49.5547 79.2135V79.2135ZM25.5964 72.0026C41.5889 75.401 58.1162 75.4089 74.112 72.026C73.9349 65.9818 68.7682 57.5755 63.6745 54.8385C54.4505 60.6068 45.276 60.5885 36.0703 54.7865C30.1562 59.013 26.6484 64.6693 25.5911 72.0026H25.5964Z" fill="#7A7A7A"/>
<path d="M49.9089 49.8151C47.0571 49.8171 44.2687 48.9738 41.896 47.3917C39.5233 45.8096 37.6729 43.5597 36.5785 40.9262C35.4841 38.2928 35.1948 35.3941 35.7473 32.5963C36.2997 29.7986 37.6691 27.2273 39.6823 25.2076C41.6955 23.1878 44.2623 21.8101 47.0582 21.2485C49.8542 20.687 52.7539 20.9669 55.3908 22.0527C58.0278 23.1386 60.2837 24.9817 61.8735 27.3492C63.4633 29.7167 64.3157 32.5024 64.3229 35.3542C64.3271 39.1826 62.8113 42.8561 60.1086 45.5676C57.4058 48.2791 53.7373 49.8068 49.9089 49.8151V49.8151ZM49.8724 25.651C47.9444 25.6578 46.0617 26.2364 44.4628 27.3138C42.8638 28.3911 41.6205 29.9187 40.8902 31.703C40.1599 33.4874 39.9755 35.4484 40.3603 37.3376C40.7451 39.2268 41.6818 40.9594 43.0519 42.316C44.4219 43.6725 46.1637 44.592 48.0567 44.9581C49.9496 45.3242 51.9086 45.1204 53.6857 44.3724C55.4627 43.6245 56.9779 42.3661 58.0394 40.7566C59.1008 39.147 59.6608 37.2587 59.6484 35.3307C59.6319 32.7519 58.5936 30.2848 56.761 28.4704C54.9285 26.6559 52.4513 25.642 49.8724 25.651V25.651Z" fill="#7A7A7A"/>
</g>
<defs>
<clipPath id="clip0_9_51">
<rect width="100" height="100" fill="white"/>
</clipPath>
</defs>
</svg>
